<svg width="200" height="200" viewBox="0 0 200 200" xmlns="http://www.w3.org/2000/svg">
  <defs>
    <linearGradient id="gradLotus" x1="0%" y1="0%" x2="0%" y2="100%">
      <stop offset="0%" style="stop-color:#ec008c;stop-opacity:1" />
      <stop offset="100%" style="stop-color:#fc6767;stop-opacity:1" />
    </linearGradient>
  </defs>
  
  <rect width="200" height="200" fill="#FFF0F5" rx="30" />
  
  <!-- Center Petal -->
  <path d="M100 140 Q60 100 100 40 Q140 100 100 140" fill="url(#gradLotus)" />
  
  <!-- Side Petals -->
  <path d="M100 140 Q60 120 40 80 Q70 100 100 140" fill="url(#gradLotus)" opacity="0.8"/>
  <path d="M100 140 Q140 120 160 80 Q130 100 100 140" fill="url(#gradLotus)" opacity="0.8"/>
  
  <!-- Rupee Coin in Center -->
  <circle cx="100" cy="110" r="15" fill="#FFD700" stroke="#cc9900" stroke-width="2"/>
  <!-- Rupee Simple Path -->
  <path d="M95 105 h10 M95 108 h10 M95 105 q0 5 5 5 t5 5 l-8 8" stroke="#cc9900" stroke-width="2" fill="none" transform="translate(0, -2)"/>

  <text x="100" y="180" font-family="Arial" font-size="16" fill="#cc3300" text-anchor="middle" font-weight="bold">PROSPERITY</text>
</svg>